<mxfile host="Electron" modified="2023-05-11T18:28:14.102Z" agent="Mozilla/5.0 (Macintosh; Intel Mac OS X 10_15_7) AppleWebKit/537.36 (KHTML, like Gecko) draw.io/21.2.1 Chrome/112.0.5615.87 Electron/24.1.2 Safari/537.36" etag="LpoeCZGkcgMfq1rHiJa1" version="21.2.1" type="device">
  <diagram id="gvuNHLQdN8q4gosihXst" name="Page-1">
    <mxGraphModel dx="895" dy="1843" grid="1" gridSize="10" guides="1" tooltips="1" connect="1" arrows="1" fold="1" page="1" pageScale="1" pageWidth="827" pageHeight="1169" math="0" shadow="0">
      <root>
        <mxCell id="0" />
        <mxCell id="1" parent="0" />
        <mxCell id="bXtTfz1NeDu2KijVN5Vj-17" value="Pile" style="swimlane;childLayout=stackLayout;resizeParent=1;resizeParentMax=0;horizontal=1;startSize=20;horizontalStack=0;fillStyle=auto;" parent="1" vertex="1">
          <mxGeometry x="150" y="-100" width="480" height="860" as="geometry" />
        </mxCell>
        <mxCell id="bXtTfz1NeDu2KijVN5Vj-18" value="0x01" style="swimlane;startSize=20;horizontal=0;fillStyle=auto;" parent="bXtTfz1NeDu2KijVN5Vj-17" vertex="1">
          <mxGeometry y="20" width="480" height="120" as="geometry" />
        </mxCell>
        <mxCell id="bXtTfz1NeDu2KijVN5Vj-38" value="REGISTRES LOCALES..." style="text;html=1;align=center;verticalAlign=middle;resizable=0;points=[];autosize=1;strokeColor=none;fillColor=none;fontSize=20;" parent="bXtTfz1NeDu2KijVN5Vj-18" vertex="1">
          <mxGeometry x="115" y="40" width="250" height="40" as="geometry" />
        </mxCell>
        <mxCell id="bXtTfz1NeDu2KijVN5Vj-19" value="ox02" style="swimlane;startSize=20;horizontal=0;fillStyle=auto;" parent="bXtTfz1NeDu2KijVN5Vj-17" vertex="1">
          <mxGeometry y="140" width="480" height="120" as="geometry">
            <mxRectangle y="140" width="480" height="30" as="alternateBounds" />
          </mxGeometry>
        </mxCell>
        <mxCell id="bXtTfz1NeDu2KijVN5Vj-37" value="fp" style="text;html=1;align=center;verticalAlign=middle;resizable=0;points=[];autosize=1;strokeColor=none;fillColor=none;fontSize=20;" parent="bXtTfz1NeDu2KijVN5Vj-19" vertex="1">
          <mxGeometry x="220" y="40" width="40" height="40" as="geometry" />
        </mxCell>
        <mxCell id="bXtTfz1NeDu2KijVN5Vj-20" value="0x03" style="swimlane;startSize=20;horizontal=0;fillStyle=auto;" parent="bXtTfz1NeDu2KijVN5Vj-17" vertex="1">
          <mxGeometry y="260" width="480" height="120" as="geometry" />
        </mxCell>
        <mxCell id="bXtTfz1NeDu2KijVN5Vj-36" value="lr" style="text;html=1;align=center;verticalAlign=middle;resizable=0;points=[];autosize=1;strokeColor=none;fillColor=none;fontSize=20;" parent="bXtTfz1NeDu2KijVN5Vj-20" vertex="1">
          <mxGeometry x="225" y="40" width="30" height="40" as="geometry" />
        </mxCell>
        <mxCell id="bXtTfz1NeDu2KijVN5Vj-21" value="0x04" style="swimlane;startSize=20;horizontal=0;fillStyle=auto;" parent="bXtTfz1NeDu2KijVN5Vj-17" vertex="1">
          <mxGeometry y="380" width="480" height="120" as="geometry">
            <mxRectangle y="140" width="480" height="30" as="alternateBounds" />
          </mxGeometry>
        </mxCell>
        <mxCell id="bXtTfz1NeDu2KijVN5Vj-35" value="address fonction f" style="text;html=1;align=center;verticalAlign=middle;resizable=0;points=[];autosize=1;strokeColor=none;fillColor=none;fontSize=20;" parent="bXtTfz1NeDu2KijVN5Vj-21" vertex="1">
          <mxGeometry x="150" y="40" width="180" height="40" as="geometry" />
        </mxCell>
        <mxCell id="bXtTfz1NeDu2KijVN5Vj-28" value="0x05" style="swimlane;startSize=20;horizontal=0;fillStyle=auto;" parent="bXtTfz1NeDu2KijVN5Vj-17" vertex="1">
          <mxGeometry y="500" width="480" height="120" as="geometry">
            <mxRectangle y="140" width="480" height="30" as="alternateBounds" />
          </mxGeometry>
        </mxCell>
        <mxCell id="bXtTfz1NeDu2KijVN5Vj-34" value="&lt;font style=&quot;font-size: 20px;&quot;&gt;address tab2&lt;/font&gt;" style="text;html=1;align=center;verticalAlign=middle;resizable=0;points=[];autosize=1;strokeColor=none;fillColor=none;" parent="bXtTfz1NeDu2KijVN5Vj-28" vertex="1">
          <mxGeometry x="170" y="40" width="140" height="40" as="geometry" />
        </mxCell>
        <mxCell id="bXtTfz1NeDu2KijVN5Vj-29" value="0x06" style="swimlane;startSize=20;horizontal=0;fillStyle=auto;" parent="bXtTfz1NeDu2KijVN5Vj-17" vertex="1">
          <mxGeometry y="620" width="480" height="120" as="geometry">
            <mxRectangle y="140" width="480" height="30" as="alternateBounds" />
          </mxGeometry>
        </mxCell>
        <mxCell id="bXtTfz1NeDu2KijVN5Vj-32" value="NMAX" style="text;html=1;align=center;verticalAlign=middle;resizable=0;points=[];autosize=1;strokeColor=none;fillColor=none;fontSize=20;" parent="bXtTfz1NeDu2KijVN5Vj-29" vertex="1">
          <mxGeometry x="200" y="40" width="80" height="40" as="geometry" />
        </mxCell>
        <mxCell id="bXtTfz1NeDu2KijVN5Vj-30" value="0x07" style="swimlane;startSize=20;horizontal=0;fillStyle=auto;" parent="bXtTfz1NeDu2KijVN5Vj-17" vertex="1">
          <mxGeometry y="740" width="480" height="120" as="geometry">
            <mxRectangle y="140" width="480" height="30" as="alternateBounds" />
          </mxGeometry>
        </mxCell>
        <mxCell id="bXtTfz1NeDu2KijVN5Vj-33" value="address tab1" style="text;html=1;align=center;verticalAlign=middle;resizable=0;points=[];autosize=1;strokeColor=none;fillColor=none;fontSize=20;" parent="bXtTfz1NeDu2KijVN5Vj-30" vertex="1">
          <mxGeometry x="170" y="40" width="140" height="40" as="geometry" />
        </mxCell>
        <mxCell id="bXtTfz1NeDu2KijVN5Vj-42" style="edgeStyle=orthogonalEdgeStyle;rounded=0;orthogonalLoop=1;jettySize=auto;html=1;entryX=0;entryY=0.5;entryDx=0;entryDy=0;fontSize=20;" parent="1" source="bXtTfz1NeDu2KijVN5Vj-41" target="bXtTfz1NeDu2KijVN5Vj-19" edge="1">
          <mxGeometry relative="1" as="geometry" />
        </mxCell>
        <mxCell id="bXtTfz1NeDu2KijVN5Vj-41" value="&lt;font style=&quot;font-size: 20px;&quot;&gt;fp&lt;/font&gt;" style="text;html=1;strokeColor=none;fillColor=none;align=center;verticalAlign=middle;whiteSpace=wrap;rounded=0;fillStyle=auto;" parent="1" vertex="1">
          <mxGeometry x="40" y="85" width="30" height="30" as="geometry" />
        </mxCell>
      </root>
    </mxGraphModel>
  </diagram>
</mxfile>
